# File created by Blade
# Date/Time:  Wed Jan 21 17:05:57 2015
# Frame Rate: 120.000 fps
#------------------------------------------------------
:FULLY-SPECIFIED
:DEGREES
625
root 19.981483 35.570723 -23.171811 -172.701251 1.431548 -178.765116
Spine -18.377603 -0.369162 0.999481
Head 7.117862 0.665021 0.618894
LeftShoulder -14.728432 -31.045255 20.625799
LeftArm -1.100355 -1.076527 -7.707168
LeftForeArm 11.594540 -0.000000 -3.452608
LeftHand -7.317006 -0.000000 0.097629
LeftHandThumb1 -26.253704 0.000000 33.147579
RightShoulder -12.456466 -4.539229 -10.255810
RightArm 4.208383 42.075554 11.888010
RightForeArm -36.425113 -0.000000 4.604387
RightHand -5.989259 -0.000000 2.553849
RightHandThumb1 -24.326973 -0.000000 -32.862282
LeftUpLeg 2.315277 14.527438 4.025921
LeftLeg -5.997106 -0.000000 0.000000
LeftFoot -19.299829 24.800793 -17.047389
LeftToeBase 24.221661 -0.000000 -0.000000
RightUpLeg 0.099511 -12.274867 0.109721
RightLeg -3.652879 -0.000000 0.000000
RightFoot -20.601094 -29.007273 17.309518
RightToeBase 22.794003 -0.000000 -0.000000
626
root 19.979765 35.568211 -23.186562 -172.737731 1.393871 -178.782176
Spine -18.305393 -0.350823 1.002331
Head 7.024123 0.637274 0.549449
LeftShoulder -14.727792 -30.980396 20.560711
LeftArm -1.007431 -1.086473 -7.753224
LeftForeArm 11.588381 -0.000000 -3.483864
LeftHand -7.255601 0.000000 0.087562
LeftHandThumb1 -26.253704 0.000000 33.147579
RightShoulder -12.445374 -4.635345 -10.251161
RightArm 4.311703 42.126492 11.933725
RightForeArm -36.425463 0.000000 4.569185
RightHand -5.943357 -0.000000 2.598580
RightHandThumb1 -24.326973 -0.000000 -32.862282
LeftUpLeg 2.364652 14.522172 4.023015
LeftLeg -5.987227 -0.000000 0.000000
LeftFoot -19.311519 24.770164 -17.034303
LeftToeBase 24.222221 -0.000000 -0.000000
RightUpLeg 0.167613 -12.255096 0.076062
RightLeg -3.649977 -0.000000 0.000000
RightFoot -20.641237 -29.054847 17.292941
RightToeBase 22.854903 -0.000000 -0.000000
627
root 19.977697 35.565791 -23.201816 -172.775984 1.345147 -178.802856
Spine -18.229556 -0.362989 1.001536
Head 6.950864 0.647397 0.498597
LeftShoulder -14.746890 -30.923430 20.528631
LeftArm -0.933675 -1.084261 -7.809152
LeftForeArm 11.592337 -0.000000 -3.483358
LeftHand -7.366776 -0.000000 0.136208
LeftHandThumb1 -26.253704 0.000000 33.147579
RightShoulder -12.460641 -4.671821 -10.267539
RightArm 4.502720 42.055383 12.058865
RightForeArm -36.384186 -0.000000 4.500910
RightHand -5.939177 -0.000000 2.545361
RightHandThumb1 -24.326973 -0.000000 -32.862282
LeftUpLeg 2.437575 14.454915 4.018174
LeftLeg -6.021831 -0.000000 0.000000
LeftFoot -19.319683 24.787493 -17.053234
LeftToeBase 24.259134 -0.000000 -0.000000
RightUpLeg 0.241864 -12.257042 0.043279
RightLeg -3.657458 -0.000000 0.000000
RightFoot -20.688899 -29.106663 17.288203
RightToeBase 22.847676 -0.000000 -0.000000
628
root 19.976350 35.563682 -23.214886 -172.811335 1.289351 -178.817360
Spine -18.163587 -0.367068 1.005410
Head 6.928857 0.625967 0.436854
LeftShoulder -14.731347 -30.852308 20.465120
LeftArm -0.856987 -1.082880 -7.854583
LeftForeArm 11.595092 -0.000000 -3.479868
LeftHand -7.337388 0.000000 0.071657
LeftHandThumb1 -26.253704 0.000000 33.147579
RightShoulder -12.452109 -4.746298 -10.290579
RightArm 4.642852 42.144823 12.168683
RightForeArm -36.411047 -0.000000 4.466048
RightHand -5.993954 -0.000000 2.574251
RightHandThumb1 -24.326973 -0.000000 -32.862282
LeftUpLeg 2.485977 14.413808 4.018628
LeftLeg -6.026467 -0.000000 0.000000
LeftFoot -19.325468 24.774004 -17.060623
LeftToeBase 24.203096 -0.000000 -0.000000
RightUpLeg 0.304872 -12.270449 0.019164
RightLeg -3.653329 -0.000000 0.000000
RightFoot -20.723505 -29.152864 17.308523
RightToeBase 22.783635 -0.000000 -0.000000
629
root 19.974532 35.561967 -23.227347 -172.834426 1.243263 -178.829573
Spine -18.114784 -0.376994 1.021385
Head 6.923019 0.621527 0.369835
LeftShoulder -14.748424 -30.811950 20.441564
LeftArm -0.779477 -0.970340 -7.926068
LeftForeArm 11.548755 -0.000000 -3.498736
LeftHand -7.310606 -0.000000 -0.015426
LeftHandThumb1 -26.253704 0.000000 33.147579
RightShoulder -12.400930 -4.828134 -10.287205
RightArm 4.717606 42.190951 12.179979
RightForeArm -36.402689 -0.000000 4.429269
RightHand -5.924504 -0.000000 2.636094
RightHandThumb1 -24.326973 -0.000000 -32.862282
LeftUpLeg 2.520158 14.387068 4.017286
LeftLeg -6.024781 -0.000000 0.000000
LeftFoot -19.334131 24.761487 -17.054369
LeftToeBase 24.226147 -0.000000 -0.000000
RightUpLeg 0.358694 -12.288431 -0.001919
RightLeg -3.658775 -0.000000 0.000000
RightFoot -20.768340 -29.173774 17.320665
RightToeBase 22.834711 -0.000000 -0.000000
630
root 19.973048 35.560022 -23.238486 -172.854386 1.179431 -178.831439
Spine -18.056460 -0.398450 1.054985
Head 6.892756 0.603958 0.291072
LeftShoulder -14.771164 -30.794999 20.410997
LeftArm -0.693227 -0.908711 -7.979679
LeftForeArm 11.511170 -0.000000 -3.546752
LeftHand -7.337494 -0.000000 0.064495
LeftHandThumb1 -26.253704 0.000000 33.147579
RightShoulder -12.364551 -4.899442 -10.326207
RightArm 4.774582 42.103414 12.245881
RightForeArm -36.336531 -0.000000 4.473992
RightHand -6.001907 -0.000000 2.657549
RightHandThumb1 -24.326973 -0.000000 -32.862282
LeftUpLeg 2.523944 14.405466 4.027045
LeftLeg -5.980932 -0.000000 0.000000
LeftFoot -19.344127 24.685603 -17.013101
LeftToeBase 24.241171 -0.000000 -0.000000
RightUpLeg 0.411929 -12.337377 -0.013348
RightLeg -3.663478 -0.000000 0.000000
RightFoot -20.781013 -29.157077 17.309668
RightToeBase 22.847936 -0.000000 -0.000000
631
root 19.969105 35.557544 -23.246895 -172.855305 1.161682 -178.841381
Spine -18.018156 -0.363518 1.072260
Head 6.859952 0.575310 0.206575
LeftShoulder -14.753474 -30.768098 20.373776
LeftArm -0.652456 -0.832990 -8.037294
LeftForeArm 11.502553 -0.000000 -3.552804
LeftHand -7.369109 0.000000 0.104327
LeftHandThumb1 -26.253704 0.000000 33.147579
RightShoulder -12.347169 -4.899157 -10.366051
RightArm 4.820288 41.969450 12.256520
RightForeArm -36.200839 -0.000000 4.472600
RightHand -5.941770 0.000000 2.721346
RightHandThumb1 -24.326973 -0.000000 -32.862282
LeftUpLeg 2.532707 14.433026 4.016221
LeftLeg -5.975855 -0.000000 0.000000
LeftFoot -19.356426 24.642270 -16.989046
LeftToeBase 24.258836 -0.000000 -0.000000
RightUpLeg 0.424836 -12.328674 -0.034380
RightLeg -3.649510 -0.000000 0.000000
RightFoot -20.811517 -29.170345 17.303600
RightToeBase 22.834331 -0.000000 -0.000000
